<svg width="115" height="29" viewBox="0 0 115 29" fill="none" xmlns="http://www.w3.org/2000/svg">
<path d="M29.76 6.2L21.528 23H26.016L27.312 20.168H33.336L33.816 23H38.28L34.776 6.2H29.76ZM31.728 9.992L32.928 16.952H28.608L31.728 9.992ZM44.2119 9.176C45.5559 9.176 46.7319 8.216 46.9239 6.872C47.0919 5.6 46.2039 4.616 44.8599 4.616C43.5399 4.616 42.3399 5.6 42.1719 6.872C41.9799 8.216 42.8919 9.176 44.2119 9.176ZM46.2039 10.232H41.9079L40.1079 23H44.4279L46.2039 10.232ZM57.0786 10.112C56.7906 10.04 56.4546 9.992 56.0946 9.992C54.7746 9.992 53.5266 10.736 52.7106 12.08L52.7346 10.232H48.7266L46.9266 23H51.2466L52.0386 17.144C52.3266 15.056 53.6466 13.856 55.5906 13.856C55.9986 13.856 56.2866 13.904 56.5266 13.976L57.0786 10.112ZM62.1887 13.832C62.2847 13.232 62.9567 12.824 63.8207 12.824C64.8047 12.824 65.4527 13.28 65.4287 14H69.2927C69.4367 11.504 67.4927 9.944 64.2287 9.944C60.8687 9.944 58.4447 11.624 58.1087 14.168C57.8207 16.208 59.0447 17.456 61.8527 17.984L62.6687 18.128C64.3487 18.464 64.7807 18.728 64.7087 19.328C64.6127 19.928 63.9407 20.36 63.0287 20.36C61.9007 20.36 61.1567 19.808 61.2287 19.064H57.0767C56.9807 21.704 58.9967 23.288 62.5247 23.288C66.1727 23.288 68.6447 21.608 69.0527 18.8C69.3407 16.76 68.3087 15.8 65.1647 15.2L64.2767 15.008C62.5967 14.672 62.1167 14.408 62.1887 13.832ZM80.4921 9.944C78.7881 9.944 77.3721 10.688 76.2921 12.056L77.2281 5.48H72.9321L70.4601 23H74.7801L75.7401 16.088C76.0041 14.288 76.7961 13.4 78.0681 13.4C79.2441 13.4 79.7481 14.096 79.5321 15.632L78.5241 23H82.8201L84.0201 14.504C84.4041 11.624 83.1321 9.944 80.4921 9.944ZM93.4314 9.944C89.4474 9.944 86.3274 12.68 85.7754 16.616C85.2234 20.552 87.5514 23.288 91.5594 23.288C95.5194 23.288 98.6154 20.552 99.1674 16.616C99.7194 12.68 97.4154 9.944 93.4314 9.944ZM91.9914 20.048C90.5034 20.048 89.7834 18.728 90.0714 16.616C90.3594 14.48 91.4634 13.184 92.9514 13.184C94.4154 13.184 95.1594 14.48 94.8714 16.616C94.5834 18.728 93.4554 20.048 91.9914 20.048ZM104.109 27.32L104.973 21.152C105.573 22.568 107.013 23.24 108.597 23.24C112.125 23.24 114.333 20.096 114.837 16.592C115.341 13.064 114.069 9.944 110.469 9.944C108.885 9.944 107.229 10.592 106.197 12.032L106.221 10.232H102.213L99.8132 27.32H104.109ZM105.525 16.592C105.813 14.48 106.965 13.16 108.501 13.16C109.989 13.16 110.757 14.504 110.469 16.592C110.181 18.68 109.029 20.048 107.517 20.048C105.981 20.048 105.213 18.704 105.525 16.592Z" fill="#0D1726"/>
<path d="M8.34997 6.03566L14.976 4.59236C15.4661 4.4856 15.962 4.74695 16.151 5.21161L18.9062 11.9869L14.1842 21.1309L12.3513 20.1844L16.6376 11.8842L14.567 6.79264L9.679 7.85736L3.05556 19.3005L1.27024 18.2671L8.34997 6.03566Z" fill="url(#paint0_linear)"/>
<path d="M6.70939 20.5387L4.52286 24.3929L2.72866 23.375L4.91518 19.5208L6.70939 20.5387Z" fill="url(#paint1_linear)"/>
<path d="M10.513 20.5546L8.32649 24.4088L6.53228 23.3909L8.7188 19.5368L10.513 20.5546Z" fill="url(#paint2_linear)"/>
<path d="M12.5607 13.2114C13.4883 13.0093 14.0765 12.0935 13.8745 11.1659C13.6724 10.2382 12.7566 9.65005 11.829 9.85211C10.9013 10.0542 10.3131 10.97 10.5152 11.8976C10.7173 12.8252 11.6331 13.4134 12.5607 13.2114Z" fill="url(#paint3_linear)"/>
<defs>
<linearGradient id="paint0_linear" x1="14.7387" y1="6.59911" x2="5.26382" y2="22.54" gradientUnits="userSpaceOnUse">
<stop stop-color="#CB35FF"/>
<stop offset="0.299315" stop-color="#AC42FF"/>
<stop offset="1" stop-color="#780EFF"/>
</linearGradient>
<linearGradient id="paint1_linear" x1="14.7387" y1="6.59911" x2="5.26382" y2="22.54" gradientUnits="userSpaceOnUse">
<stop stop-color="#CB35FF"/>
<stop offset="0.299315" stop-color="#AC42FF"/>
<stop offset="1" stop-color="#780EFF"/>
</linearGradient>
<linearGradient id="paint2_linear" x1="14.7387" y1="6.59911" x2="5.26382" y2="22.54" gradientUnits="userSpaceOnUse">
<stop stop-color="#CB35FF"/>
<stop offset="0.299315" stop-color="#AC42FF"/>
<stop offset="1" stop-color="#780EFF"/>
</linearGradient>
<linearGradient id="paint3_linear" x1="14.7387" y1="6.59911" x2="5.26382" y2="22.54" gradientUnits="userSpaceOnUse">
<stop stop-color="#CB35FF"/>
<stop offset="0.299315" stop-color="#AC42FF"/>
<stop offset="1" stop-color="#780EFF"/>
</linearGradient>
</defs>
</svg>
